<svg width="32" height="32" viewBox="0 0 32 32" xmlns="http://www.w3.org/2000/svg">
  <defs>
    <linearGradient id="bgGradient" x1="0%" y1="0%" x2="100%" y2="100%">
      <stop offset="0%" stop-color="#0A0F1A"/>
      <stop offset="100%" stop-color="#14213D"/>
    </linearGradient>
    <linearGradient id="letterGradient" x1="0%" y1="0%" x2="100%" y2="100%">
      <stop offset="0%" stop-color="#00BCD4"/>
      <stop offset="100%" stop-color="#14F1FF"/>
    </linearGradient>
    <filter id="glow" x="-50%" y="-50%" width="200%" height="200%">
      <feGaussianBlur in="SourceAlpha" stdDeviation="2" result="blur"/>
      <feFlood flood-color="#00BCD4" flood-opacity="0.8" result="color"/>
      <feComposite in="color" in2="blur" operator="in" result="glow"/>
      <feMerge>
        <feMergeNode in="glow"/>
        <feMergeNode in="SourceGraphic"/>
      </feMerge>
    </filter>
  </defs>
  
  <!-- Background -->
  <rect width="32" height="32" rx="8" fill="url(#bgGradient)"/>
  
  <!-- Glass effect -->
  <rect x="2" y="2" width="28" height="28" rx="6" fill="rgba(255,255,255,0.1)" stroke="rgba(255,255,255,0.2)" stroke-width="0.5"/>
  
  <!-- B Letter -->
  <path d="M10 8 L10 24 L18 24 C21 24 23 22 23 19.5 C23 17 21 15 18 15 L14 15 L14 8 Z M14 11 L14 13 L18 13 C19 13 20 14 20 15 C20 16 19 17 18 17 L14 17 L14 19 L18 19 C20 19 21 20 21 21.5 C21 23 20 24 18 24 L14 24 L14 21 Z" 
        fill="url(#letterGradient)" filter="url(#glow)"/>
  
  <!-- Tech dot -->
  <circle cx="25" cy="7" r="1.5" fill="#14F1FF" filter="url(#glow)"/>
</svg>
