<svg width="32" height="32" viewBox="0 0 32 32" xmlns="http://www.w3.org/2000/svg">
  <defs>
    <linearGradient id="pinGradient" x1="0%" y1="0%" x2="100%" y2="100%">
      <stop offset="0%" stop-color="#00BCD4"/>
      <stop offset="100%" stop-color="#14F1FF"/>
    </linearGradient>
  </defs>
  
  <!-- Simplified B letter for pinned tab -->
  <path d="M8 6 L8 26 L16 26 C20 26 22 23 22 20 C22 17 20 15 16 15 L12 15 L12 6 Z M12 10 L12 13 L16 13 C17 13 18 14 18 15 C18 16 17 17 16 17 L12 17 L12 20 L16 20 C18 20 19 21 19 22 C19 23 18 24 16 24 L12 24 L12 21 Z" 
        fill="url(#pinGradient)"/>
</svg>
